<?xml version="1.0" standalone="no"?>
<!DOCTYPE svg PUBLIC "-//W3C//DTD SVG 20010904//EN"
 "http://www.w3.org/TR/2001/REC-SVG-20010904/DTD/svg10.dtd">
<svg version="1.0" xmlns="http://www.w3.org/2000/svg"
 width="600.000000pt" height="600.000000pt" viewBox="0 0 600.000000 600.000000"
 preserveAspectRatio="xMidYMid meet">
<metadata>
Created by potrace 1.11, written by Peter Selinger 2001-2013
</metadata>
<g transform="translate(0.000000,600.000000) scale(0.100000,-0.100000)"
fill="#000000" stroke="none">
<path d="M0 3015 l0 -2985 2990 0 2990 0 0 2985 0 2985 -2990 0 -2990 0 0
-2985z m2667 2134 c55 -27 120 -101 134 -153 6 -22 9 -68 7 -102 -13 -208
-269 -305 -425 -161 -64 59 -87 108 -87 187 0 74 16 114 73 173 81 87 192 107
298 56z m1136 -7 c152 -82 179 -278 56 -401 -92 -92 -231 -103 -333 -25 -64
48 -97 110 -104 189 -4 56 -1 72 22 120 68 138 226 190 359 117z m-1023 -2239
c0 -837 -4 -1364 -10 -1408 -29 -203 -95 -351 -212 -479 -56 -62 -194 -166
-219 -166 -7 0 -83 69 -169 154 l-155 154 62 32 c76 39 167 133 205 212 61
124 58 49 58 1505 l0 1333 220 0 220 0 0 -1337z m1120 212 l0 -1125 -220 0
-220 0 0 1125 0 1125 220 0 220 0 0 -1125z"/>
</g>
</svg>
